<?xml version="1.0" encoding="UTF-8" standalone="no"?>
<!-- Created with Inkscape (http://www.inkscape.org/) -->

<svg
   xmlns:dc="http://purl.org/dc/elements/1.1/"
   xmlns:cc="http://creativecommons.org/ns#"
   xmlns:rdf="http://www.w3.org/1999/02/22-rdf-syntax-ns#"
   xmlns:svg="http://www.w3.org/2000/svg"
   xmlns="http://www.w3.org/2000/svg"
   xmlns:sodipodi="http://sodipodi.sourceforge.net/DTD/sodipodi-0.dtd"
   xmlns:inkscape="http://www.inkscape.org/namespaces/inkscape"
   width="1024"
   height="500"
   viewBox="0 0 270.93338 132.29167"
   version="1.1"
   id="svg8"
   inkscape:version="0.92.1 r15371"
   sodipodi:docname="ban_mini4k_unmute.svg"
   inkscape:export-filename="D:\dev\Android\projects\Mini4kUnmute\ban_mini4k_unmute.png"
   inkscape:export-xdpi="96"
   inkscape:export-ydpi="96">
  <defs
     id="defs2" />
  <sodipodi:namedview
     id="base"
     pagecolor="#ffffff"
     bordercolor="#666666"
     borderopacity="1.0"
     inkscape:pageopacity="0.0"
     inkscape:pageshadow="2"
     inkscape:zoom="0.7"
     inkscape:cx="585.41267"
     inkscape:cy="225.91621"
     inkscape:document-units="px"
     inkscape:current-layer="layer1"
     showgrid="false"
     units="px"
     inkscape:window-width="1920"
     inkscape:window-height="1017"
     inkscape:window-x="-8"
     inkscape:window-y="-8"
     inkscape:window-maximized="1"
     fit-margin-top="0"
     fit-margin-left="0"
     fit-margin-right="0"
     fit-margin-bottom="0" />
  <metadata
     id="metadata5">
    <rdf:RDF>
      <cc:Work
         rdf:about="">
        <dc:format>image/svg+xml</dc:format>
        <dc:type
           rdf:resource="http://purl.org/dc/dcmitype/StillImage" />
        <dc:title></dc:title>
      </cc:Work>
    </rdf:RDF>
  </metadata>
  <g
     inkscape:label="Calque 1"
     inkscape:groupmode="layer"
     id="layer1"
     transform="translate(-6.4969621,-168.57867)">
    <rect
       style="opacity:1;fill:#6070d5;fill-opacity:1;stroke:none;stroke-width:2.11214733;stroke-linecap:round;stroke-linejoin:miter;stroke-miterlimit:4;stroke-dasharray:none;stroke-dashoffset:0;stroke-opacity:1"
       id="rect4553"
       width="270.93332"
       height="132.29167"
       x="6.4969621"
       y="168.57867"
       rx="0"
       ry="0" />
    <g
       id="g4566"
       transform="matrix(1.2360752,0,0,1.2360752,47.357504,-93.125072)"
       style="stroke-width:2.04171491">
      <path
         sodipodi:nodetypes="cssc"
         inkscape:connector-curvature="0"
         id="path4518"
         d="M 44.708889,229.23311 1.7732137,252.17993 c -8.472891,4.52831 -8.617136,23.13702 0,28.15922 l 39.8419493,23.22048"
         style="fill:#ffffff;fill-opacity:1;stroke:none;stroke-width:0.54020375px;stroke-linecap:butt;stroke-linejoin:miter;stroke-opacity:1" />
      <path
         sodipodi:nodetypes="sss"
         inkscape:connector-curvature="0"
         id="path4497"
         d="m 43.53951,230.06836 c -15.860365,12.8474 -14.051452,70.62368 -0.621667,74.02597 24.301079,6.15641 20.266662,-89.93905 0.621667,-74.02597 z"
         style="fill:#2f2f2f;fill-opacity:1;stroke:none;stroke-width:0.54020375px;stroke-linecap:butt;stroke-linejoin:miter;stroke-opacity:1" />
      <path
         sodipodi:nodetypes="sss"
         inkscape:connector-curvature="0"
         id="path4493"
         d="m 48.0392,235.14327 c -15.715554,5.37752 -14.282746,59.89178 -2.143758,64.09464 12.994502,4.49907 13.448832,-67.963 2.143758,-64.09464 z"
         style="fill:#ffffff;fill-opacity:1;stroke:none;stroke-width:0.54020375px;stroke-linecap:butt;stroke-linejoin:miter;stroke-opacity:1" />
      <ellipse
         ry="11.055803"
         rx="3.4962797"
         cy="267.53662"
         cx="47.100716"
         id="path4513"
         style="opacity:1;fill:#a2a2a2;fill-opacity:1;stroke:none;stroke-width:2.04171491;stroke-linecap:round;stroke-linejoin:miter;stroke-miterlimit:4;stroke-dasharray:none;stroke-dashoffset:0;stroke-opacity:1" />
      <path
         style="fill:#ffffff;fill-opacity:1;stroke:none;stroke-width:0.54020375px;stroke-linecap:butt;stroke-linejoin:miter;stroke-opacity:1"
         d="m 78.038114,250.90736 c 3.99938,9.49058 3.41268,18.81469 -0.1761,24.26581 0,0 -4.63733,-2.51004 -7.18362,-0.33675 -2.54629,2.1733 -2.28673,6.03324 1.81429,8.05116 4.10101,2.0179 7.89318,1.3131 9.17401,-1.0003 1.28082,-2.31339 -0.95195,-5.1997 -0.95195,-5.1997 3.90134,-11.77362 1.49885,-18.52708 -0.5635,-23.94884 0.28698,-1.54257 7.73489,3.2399 9.6081,7.57042 2.97325,-6.48972 -6.91852,-11.25168 -11.72123,-9.4018 z"
         id="path4555"
         inkscape:connector-curvature="0"
         sodipodi:nodetypes="cczzzcccc" />
      <path
         sodipodi:nodetypes="cczzzcccc"
         inkscape:connector-curvature="0"
         id="path4557"
         d="m 100.40403,237.77072 c 5.28722,12.54662 4.51159,24.87318 -0.2328,32.0796 0,0 -6.130586,-3.31828 -9.496806,-0.44518 -3.36622,2.87312 -3.02307,7.97599 2.39851,10.6437 5.42157,2.66768 10.434836,1.73593 12.128116,-1.32241 1.69325,-3.05832 -1.25849,-6.87404 -1.25849,-6.87404 5.1576,-15.56482 1.98149,-24.49296 -0.74496,-31.66058 0.3794,-2.03928 10.22559,4.28318 12.70199,10.00816 3.93066,-8.57946 -9.14633,-14.87481 -15.49556,-12.42925 z"
         style="fill:#ffffff;fill-opacity:1;stroke:none;stroke-width:0.54020369px;stroke-linecap:butt;stroke-linejoin:miter;stroke-opacity:1" />
      <path
         sodipodi:nodetypes="cczzzcccc"
         inkscape:connector-curvature="0"
         id="path4491"
         d="m 62.684674,264.34856 c 2.7204,6.45554 2.32132,12.79785 -0.11978,16.50573 0,0 -3.15434,-1.70734 -4.886342,-0.22906 -1.732,1.47829 -1.55544,4.10384 1.234092,5.47644 2.78953,1.37259 5.36898,0.89318 6.24021,-0.68041 0.87122,-1.57358 -0.64752,-3.53686 -0.64752,-3.53686 2.65371,-8.00848 1.01952,-12.60222 -0.3833,-16.29013 0.19521,-1.04926 5.26131,2.2038 6.53548,5.14944 2.02242,-4.41434 -4.70601,-7.65345 -7.97284,-6.39515 z"
         style="fill:#ffffff;fill-opacity:1;stroke:none;stroke-width:0.54020375px;stroke-linecap:butt;stroke-linejoin:miter;stroke-opacity:1" />
    </g>
    <text
       xml:space="preserve"
       style="font-style:normal;font-variant:normal;font-weight:normal;font-stretch:normal;font-size:21.09909058px;line-height:13.43484592px;font-family:Merck;-inkscape-font-specification:Merck;text-align:center;letter-spacing:0px;word-spacing:0px;text-anchor:middle;fill:#ffffff;fill-opacity:1;stroke:none;stroke-width:0.52747726"
       x="225.67665"
       y="270.74075"
       id="text4570"><tspan
         sodipodi:role="line"
         id="tspan4568"
         x="225.67665"
         y="270.74075"
         style="font-style:normal;font-variant:normal;font-weight:normal;font-stretch:normal;line-height:10.26822376px;font-family:Calibri;-inkscape-font-specification:Calibri;text-align:center;text-anchor:middle;fill:#ffffff;fill-opacity:1;stroke-width:0.52747726">Mini 4K</tspan><tspan
         sodipodi:role="line"
         x="225.67665"
         y="284.1756"
         style="font-style:normal;font-variant:normal;font-weight:normal;font-stretch:normal;line-height:10.26822376px;font-family:Calibri;-inkscape-font-specification:Calibri;text-align:center;text-anchor:middle;fill:#ffffff;fill-opacity:1;stroke-width:0.52747726"
         id="tspan4572">unmute</tspan></text>
  </g>
</svg>
